<?xml version="1.0" ?><svg enable-background="new 0 0 196 203.997" id="feedburner" version="1.1" viewBox="0 0 196 203.997" xml:space="preserve" xmlns="http://www.w3.org/2000/svg" xmlns:xlink="http://www.w3.org/1999/xlink"><g><path d="M97.4295,148.161c-18.574,0-34.0916-18.9336-37.49-43.9256c-4.8848,7.41-7.504,16.0624-7.504,25.1092   c0,25.4416,20.9512,46.1408,46.7032,46.1408s46.7028-20.6992,46.7028-46.1408c0-10.7304-3.742-20.9648-10.4784-29.1288   C133.1875,127.161,117.0059,148.161,97.4295,148.161z" fill="none"/><path d="M171.4823,134.493c0.0137-1.0936,0.0196-2.238,0.0196-3.4376c0-44.0348-20.9592-55.9216-45.2284-69.6912   l-1.8008-1.0196c-1.2892-0.7384-2.8847-0.6912-4.1367,0.1096c-1.2501,0.8044-1.9533,2.2344-1.8245,3.7148   c1.4005,16.1208-1.576,27.6836-8.8475,34.3748c-5.7149,5.254-13.1037,6.4768-18.0565,6.6252   c5.156-11.8244,15.1344-39.7972,3.4805-57.7656c-12.596-19.426-8.5785-42.4492-8.5373-42.68   c0.3048-1.6716-0.4747-3.3516-1.9472-4.1952c-1.4728-0.8396-3.3124-0.668-4.5995,0.4416   C79.3103,1.5674,62.7655,16.0166,44.41,47.5674c-15.32,26.332-15.572,68.5388-15.0232,84.7852   C10.4064,140.0906,0,150.6962,0,162.3914c0,23.332,43.0468,41.6056,98,41.6056c54.9531,0,98-18.2736,98-41.6056   C196,151.829,187.3203,141.9854,171.4823,134.493z M99.1387,175.4854c-25.752,0-46.7032-20.6992-46.7032-46.1408   c0-9.0468,2.6192-17.6992,7.504-25.1092c3.3984,24.992,18.916,43.9256,37.49,43.9256c19.5764,0,35.758-21,37.9336-47.9452   c6.7364,8.164,10.4784,18.3984,10.4784,29.1288C145.8415,154.7862,124.8907,175.4854,99.1387,175.4854z" fill="#EB4548"/></g></svg>